<svg xmlns="http://www.w3.org/2000/svg" width="400" height="130"><path d="M153.8 53C153.8 55.4 153.8 56.4 153.9 55.1 154 53.8 154 51.8 153.9 50.7 153.8 49.5 153.7 50.6 153.8 53M297.4 55C297.4 58.5 297.4 59.9 297.5 58.1 297.6 56.3 297.6 53.4 297.5 51.7 297.4 50 297.4 51.5 297.4 55M379.4 60.4C379.4 66.9 379.4 69.5 379.5 66.3 379.6 63.1 379.6 57.7 379.5 54.5 379.4 51.3 379.4 53.9 379.4 60.4M68.2 64.4C68.2 72.4 68.2 75.7 68.3 71.7 68.4 67.7 68.4 61.1 68.3 57.1 68.2 53.1 68.2 56.4 68.2 64.4M297.4 70.8C297.4 74.4 297.4 75.9 297.5 74.1 297.6 72.3 297.6 69.3 297.5 67.5 297.4 65.7 297.4 67.2 297.4 70.8M221.4 71.8C221.4 75.1 221.4 76.4 221.5 74.7 221.6 73 221.6 70.3 221.5 68.7 221.4 67.1 221.4 68.5 221.4 71.8"/><path d="M86.6 63.8C86.6 75 86.6 79.7 86.7 74.1 86.8 68.6 86.8 59.4 86.7 53.7 86.6 48 86.6 52.6 86.6 63.8M326.9 75.8C326.9 76.7 327 77 327.1 76.5 327.2 76 327.2 75.3 327.1 74.9 327 74.5 326.9 74.9 326.9 75.8" fill="#1a1a1a"/><path d="M191.8 56.8C191.8 59.6 191.8 60.7 191.9 59.3 192 57.9 192 55.7 191.9 54.3 191.8 52.9 191.8 54.1 191.8 56.8M191.8 71C191.8 74.5 191.8 75.9 191.9 74.1 192 72.3 192 69.4 191.9 67.7 191.8 66 191.8 67.5 191.8 71" fill="#272727"/><path d="M161 63C161 70.9 161 74.2 161.1 70.3 161.2 66.4 161.2 60 161.1 55.9 161 51.9 161 55.1 161 63M278.6 63C278.6 70.9 278.6 74.2 278.7 70.3 278.8 66.4 278.8 60 278.7 55.9 278.6 51.9 278.6 55.1 278.6 63M359.4 63.2C359.4 71.2 359.4 74.5 359.5 70.5 359.6 66.5 359.6 59.9 359.5 55.9 359.4 51.9 359.4 55.2 359.4 63.2M336.6 56.8C336.6 59.6 336.6 60.7 336.7 59.3 336.8 57.9 336.8 55.7 336.7 54.3 336.6 52.9 336.6 54.1 336.6 56.8M336.6 71.2C336.6 74.8 336.6 76.3 336.7 74.5 336.8 72.7 336.8 69.7 336.7 67.9 336.6 66.1 336.6 67.6 336.6 71.2" fill="#333"/><path d="M50.1 24.2C49.6 24.6 49.2 24.7 49.2 24.5 49.2 24.3 49.1 24.4 48.9 24.6 48.6 25 43.1 28.3 37.3 31.5 36.3 32 35 32.8 34.4 33.2 33.9 33.6 33.2 34 33 34 32.7 34.1 28.8 36.4 24.3 39L16 43.8 16 64 16 84.2 18.1 85.4C20.7 86.8 29.8 92.1 45.5 101.2L51.2 104.4 52.5 103.8C53.2 103.4 55.5 102.1 57.6 100.9 59.7 99.7 61.9 98.4 62.6 98 63.3 97.6 66.1 96 68.8 94.4 74.2 91.2 74.3 91.2 81.5 87.1L86.4 84.3 86.4 64 86.4 43.7 80.7 40.4C77.6 38.6 74.3 36.7 73.5 36.1 72.7 35.6 71.9 35.2 71.8 35.2 71.7 35.2 70.4 34.5 69 33.6 67.6 32.7 66.3 32 66.2 32 66.2 32 63.8 30.7 61 29 58.2 27.4 55.9 26 55.8 26 55.7 26 54.8 25.5 53.7 24.8 51.6 23.4 51.3 23.4 50.1 24.2M57.1 33C60.4 34.8 64.6 37.3 66.6 38.4 68.6 39.6 70.9 40.9 71.8 41.4 72.7 41.9 74.2 42.8 75.1 43.4 76 43.9 77 44.4 77.2 44.4 77.4 44.4 77.6 44.5 77.7 44.7 77.7 44.9 78.5 45.4 79.4 45.9L81 46.7 81.1 64 81.2 81.2 79.3 82.2C78.3 82.8 76.6 83.7 75.6 84.3 72.8 85.9 66.5 89.6 64.4 90.7 63.4 91.3 62.4 91.8 62.2 92 61.6 92.4 54.7 96.4 54.5 96.4 54.5 96.4 53.7 96.8 52.9 97.4L51.4 98.3 44.4 94.3C40.5 92.1 36.3 89.7 35 88.9 33.7 88.1 31.9 87.1 31 86.6 30.1 86.1 27.7 84.7 25.6 83.5L21.8 81.3 21.7 64.1 21.6 46.9 24.2 45.2C25.7 44.3 26.9 43.6 27 43.6 27 43.6 28.7 42.7 30.6 41.5 32.6 40.4 35.4 38.8 36.8 38 38.2 37.2 40.2 36.1 41.1 35.5 42 34.9 42.9 34.4 43 34.4 43.1 34.4 44.2 33.8 45.4 33 46.6 32.2 47.8 31.6 47.9 31.6 48.1 31.6 48.8 31.2 49.6 30.6 50.4 30.1 51.1 29.6 51.1 29.6 51.2 29.6 53.9 31.1 57.1 33M110.2 49.6C104.9 52 102 56.9 102 63.2 102 74.6 109.9 80.2 121.6 77.2 124.3 76.4 125.5 75 124.8 73.3L124.3 72.1 121.9 73.3C114.1 77.2 106.5 73.1 106.1 64.5 105.6 54.8 113.4 48.7 121.1 52.7 123.3 53.8 123.5 53.8 124.1 52.6 125.7 49.1 115.8 47 110.2 49.6M259.6 48.7C247.4 53 245.6 71.2 256.7 76.7 262.5 79.5 273.7 77.2 272.4 73.5 272.1 72.6 271.7 72 271.6 72.1 264.4 76.3 257.4 75.2 254.7 69.5 249.7 58.9 259.2 47.8 268.9 52.8 270.9 53.8 271.9 53.4 272 51.8 272.1 49.6 263.2 47.4 259.6 48.7M130.8 58.9C130.8 69.8 131 71.5 132.9 74.2 136.1 79 147.5 79.2 150.9 74.7 153.4 71.4 153.4 71.5 153.5 59.7L153.7 48.8 151.9 48.8 150 48.8 149.9 59.1C149.8 72.7 148.9 74.5 142.2 74.6 135.7 74.6 135.1 73.3 134.8 59.6L134.6 49 132.7 48.9 130.8 48.8 130.8 58.9M161.2 63.2L161.2 77.6 163 77.6 164.8 77.6 164.8 71.2 164.8 64.8 168.2 64.8C172.2 64.8 173.7 65.4 174.7 67.3 175.2 68.4 178.4 77 178.4 77.5 178.4 77.5 179.3 77.6 180.4 77.6 182.7 77.6 182.8 77.4 181.6 74.8 181.1 73.8 180.4 72 179.9 70.8 178.7 67.3 177.5 65.2 176.3 64.2L175.2 63.3 176.2 63C181.2 61.8 182.5 53.6 178 50.7 176 49.3 172.9 48.8 166.5 48.8L161.2 48.8 161.2 63.2M188 63.2L188 77.6 189.8 77.6 191.6 77.6 191.6 71.2 191.6 64.7 195.6 64.9C199.2 65 199.7 65.1 200.5 66 201.5 67 201.6 67.4 204.1 73.8L205.4 77.4 207.3 77.5C209.7 77.7 209.7 77.8 207.2 71.6 205 66.3 204.3 65 203.1 64 202.3 63.4 202.3 63.3 203.5 62.8 207.7 61.1 209.1 54.8 205.9 51.5 203.9 49.4 201 48.8 193.3 48.8L188 48.8 188 63.2M211.2 49C211.2 49.2 215.4 56.1 219.8 63.2L221.6 66.2 221.6 71.9 221.6 77.6 223.4 77.6 225.2 77.6 225.2 71.8 225.2 66 229.5 59.1C231.9 55.3 234.3 51.4 234.9 50.5L236 48.8 233.9 48.8 231.8 48.8 227.6 55.8 223.4 62.7 222.2 60.7C221.5 59.5 219.6 56.4 218 53.7L215.2 48.8 213.2 48.8C212.1 48.8 211.2 48.9 211.2 49M278.8 63.2L278.8 77.6 280.6 77.6 282.4 77.6 282.4 71 282.4 64.4 290 64.4 297.6 64.4 297.6 71 297.6 77.6 299.4 77.6 301.2 77.6 301.2 63.2 301.2 48.8 299.4 48.8 297.6 48.8 297.6 55 297.6 61.2 290 61.2 282.4 61.2 282.4 55 282.4 48.8 280.6 48.8 278.8 48.8 278.8 63.2M308.9 63.1L309 77.4 317.9 77.5 326.8 77.6 326.8 76 326.8 74.4 319.8 74.4 312.8 74.4 312.8 69.4 312.8 64.4 319.2 64.4 325.6 64.4 325.6 62.8 325.6 61.2 319.2 61.2 312.8 61.2 312.8 56.6 312.8 52 319.6 52 326.4 52 326.4 50.4 326.4 48.8 317.6 48.8 308.8 48.8 308.9 63.1M332.8 63.2L332.8 77.6 334.6 77.6 336.4 77.6 336.4 71.2 336.4 64.7 340.4 64.9C345.6 65.1 347.2 66.9 349 74.5 349.2 75.1 349.4 75.7 349.6 75.8 349.8 75.9 350 76.4 350 76.8 350 77.5 350.3 77.6 352 77.6 354.4 77.6 354.4 77.6 352.6 73 350.4 67.4 348.8 64.4 347.7 63.9L346.8 63.5 348.1 62.9C351.9 61.3 353.6 56.9 351.8 53.1 350.3 49.8 347.1 48.8 338.5 48.8L332.8 48.8 332.8 63.2M359.6 63.2L359.6 77.6 361.4 77.6 363.2 77.6 363.3 65.9 363.4 54.2 364.8 56.5C365.6 57.8 369.1 63 372.6 68.2L378.9 77.6 381.1 77.6 383.2 77.6 383.2 63.2 383.2 48.8 381.4 48.8 379.6 48.8 379.6 60.6 379.6 72.5 371.7 60.6 363.8 48.8 361.7 48.8 359.6 48.8 359.6 63.2M41.9 50.2C28.5 53.6 26.4 72.1 38.8 78 41.7 79.3 47.8 79.5 51 78.2 53.7 77.2 53.8 77.1 53 75.6 52.3 74.3 52 74.2 51.4 74.8 48.7 77.5 40 76.1 36.8 72.6 28.3 62.8 39.4 48 50.8 53.8 51.8 54.3 53.7 52.4 52.9 51.6 51.5 50.2 45 49.4 41.9 50.2M59.9 49.9C59.7 50 59.6 56.6 59.6 64.5L59.6 78.8 60.6 78.8 61.6 78.8 61.6 64.2C61.6 48.9 61.5 48.2 59.9 49.9M63.4 50.1C63.3 50.4 63.2 57 63.3 64.8L63.4 79 65.7 79.1 68 79.2 68 64.4 68 49.6 65.8 49.6C64.4 49.6 63.5 49.8 63.4 50.1M174.7 53C176.3 53.8 176.8 54.7 176.8 56.7 176.8 60 174.8 61.2 168.9 61.5L164.8 61.7 164.8 56.8 164.8 51.9 169.1 52.1C172 52.2 173.9 52.5 174.7 53M201.2 52.8C203.2 53.8 203.6 54.4 203.6 56.6 203.6 60 201.8 61.2 195.7 61.5L191.6 61.7 191.6 56.8 191.6 51.9 195.9 52.1C198.3 52.2 200.7 52.5 201.2 52.8M344.8 52.4C348.1 53.2 349.4 55.6 348.1 58.3 347 60.6 345.5 61.3 340.6 61.5L336.4 61.7 336.4 56.9 336.4 52 339.7 52C341.5 52 343.8 52.2 344.8 52.4M55.5 59.1C54.6 59.3 54.2 61 54.8 61.8 55.9 63.1 58.2 62.1 57.9 60.6 57.8 59.7 56.4 58.9 55.5 59.1M54.8 67C53.7 68.3 55 70.2 56.8 69.7 58.6 69.2 58.1 66.4 56.2 66.4 55.7 66.4 55.1 66.7 54.8 67" fill="#444"/></svg>