<svg xmlns="http://www.w3.org/2000/svg" width="400" height="400"><path d="M197.4 93.4C194.3 95.3 122.4 136.8 113.9 141.6L106.7 145.7 106.7 200 106.7 254.3 114.5 258.8C121.7 262.8 143.7 275.5 184.5 299.1L200 308.1 215.5 299.1C256.3 275.5 278.3 262.8 285.5 258.8L293.3 254.3 293.3 200 293.3 145.7 286.1 141.6C277.6 136.8 205.7 95.3 202.6 93.4 199.8 91.7 200.2 91.7 197.4 93.4M229.5 125.1C245.7 134.5 263.6 144.7 269.1 147.9L279.3 153.7 279.3 200 279.3 246.3 269.1 252.1C263.6 255.3 245.7 265.5 229.5 274.9L200 291.9 170.5 274.9C154.3 265.5 136.4 255.3 130.9 252.1L120.7 246.3 120.7 200 120.7 153.7 129.8 148.5C134.9 145.7 152.7 135.4 169.3 125.7 186 116 199.7 108.1 199.8 108.1 199.9 108 213.2 115.7 229.5 125.1M179 161.1C138.5 166.5 132.2 225.5 170.8 237.7 181.3 241 199.9 238.8 205.9 233.7 206.2 233.4 202.7 226.7 202.3 226.7 202.1 226.7 200.8 227.2 199.4 227.9 175.5 240.2 148 219.8 153.4 193.9 157.7 173.6 181.1 162.3 199.4 171.7 201.9 173 205.7 167.2 203.5 165.6 199.2 162.3 186.9 160.1 179 161.1M232.3 162.8C232.1 163.3 232.1 180.9 232.2 202L232.3 240.3 238.5 240.5 244.7 240.7 244.7 201.4 244.7 162 238.6 162C234.4 162 232.5 162.3 232.3 162.8M222.7 201.3L222.7 240 225 240 227.3 240 227.3 201.3 227.3 162.7 225 162.7 222.7 162.7 222.7 201.3M210 187.9C206.4 190.7 209.2 196.6 213.6 195.7 217.6 194.9 218.7 190.5 215.6 188 213.4 186.3 211.9 186.3 210 187.9M209.4 208.4C207.8 210.5 207.7 210.7 208.8 212.9 210.2 216.1 215 216.4 216.6 213.4 219.3 208.5 212.8 204 209.4 208.4" fill="#444"/></svg>